HIERARCHY
ROOT Hips
{
	OFFSET 0.000000 0.000000 0.000000 
	CHANNELS 6 Xposition Yposition Zposition Yrotation Zrotation Xrotation 
	JOINT Lumbar
	{
		OFFSET 0.000000 0.000000 0.000000 
		CHANNELS 3 Zrotation Xrotation Yrotation
		JOINT Neck
		{
			OFFSET 0.000000 0.445665 0.000000 
			CHANNELS 3 Zrotation Xrotation Yrotation
			End Site
			{
				OFFSET 0.000000 0.227535 0.000000 
			}
		}
		JOINT RightShoulder
		{
			OFFSET 0.019635 0.377685 0.194865 
			CHANNELS 3 Zrotation Xrotation Yrotation
			JOINT RightElbow
			{
				OFFSET 0.000000 -0.243375 0.000000 
				CHANNELS 2 Zrotation Yrotation
				JOINT RightWrist
				{
					OFFSET 0.000000 -0.264825 0.000000 
					CHANNELS 2 Zrotation Xrotation
					End Site
					{
						OFFSET 0.006600 -0.176220 0.000990 
					}
				}
			}
		}
		JOINT LeftShoulder
		{
			OFFSET 0.019635 0.377685 -0.194865 
			CHANNELS 3 Zrotation Xrotation Yrotation
			JOINT LeftElbow
			{
				OFFSET 0.000000 -0.243375 0.000000 
				CHANNELS 2 Zrotation Yrotation
				JOINT LeftWrist
				{
					OFFSET 0.000000 -0.264825 0.000000 
					CHANNELS 2 Zrotation Xrotation
					End Site
					{
						OFFSET 0.006600 -0.176220 -0.000990 
					}
				}
			}
		}
	}
	JOINT RightHip
	{
		OFFSET 0.052140 -0.069960 0.075570 
		CHANNELS 3 Zrotation Xrotation Yrotation
		JOINT RightKnee
		{
			OFFSET 0.000000 -0.402270 0.000000 
			CHANNELS 1 Zrotation
			JOINT RightAnkle
			{
				OFFSET 0.000000 -0.404085 0.000000 
				CHANNELS 3 Zrotation Xrotation Yrotation
				End Site
				{
					OFFSET 0.204105 -0.089430 0.008415 
				}
			}
		}
	}
	JOINT LeftHip
	{
		OFFSET 0.052140 -0.069960 -0.075570 
		CHANNELS 3 Zrotation Xrotation Yrotation
		JOINT LeftKnee
		{
			OFFSET 0.000000 -0.402270 0.000000 
			CHANNELS 1 Zrotation
			JOINT LeftAnkle
			{
				OFFSET 0.000000 -0.404085 0.000000 
				CHANNELS 3 Zrotation Xrotation Yrotation
				End Site
				{
					OFFSET 0.204105 -0.089430 -0.008415 
				}
			}
		}
	}
}
MOTION
Frames: 30
Frame Time: 0.02
0.00184 -0.00092 0.00575 -179.24257 -32.6885 -4.92708 41.38376 1.07402 -3.77495 -13.72711 -1.09679 -0.50627 -27.37577 -8.11409 -9.72996 29.07869 90.37273 6.59008 -0.52381 -32.06668 13.444 4.25397 32.38002 -96.5316 15.04305 0.5194 37.79111 -2.28896 -1.55523 -18.37271 -9.41136 -4.7576 -3.29733 38.20298 5.57158 7.24527 -27.18829 -8.53853 5.04656 3.42911
0.00362 -0.00064 0.00847 -179.21541 -32.57459 -5.06969 41.13623 1.07469 -4.05827 -13.59871 -1.20458 -0.50695 -26.84068 -8.32655 -9.15266 29.74102 90.24029 6.68424 -0.54745 -30.98443 13.82128 3.41485 32.96461 -96.3563 14.98909 0.53925 38.14295 -2.45631 -2.11802 -19.06087 -9.45953 -4.71469 -3.27617 38.15264 5.49084 7.17589 -27.15663 -8.52092 5.04083 3.42614
0.0054 -0.00037 0.01119 -179.18811 -32.46095 -5.21202 40.88927 1.07528 -4.34119 -13.4704 -1.31209 -0.50763 -26.30662 -8.53826 -8.57694 30.40189 90.11137 6.77888 -0.57039 -29.90434 14.19806 2.57754 33.54802 -96.18144 14.93505 0.55905 38.49446 -2.62277 -2.67918 -19.74805 -9.50751 -4.67195 -3.25509 38.10238 5.4103 7.10646 -27.12499 -8.50335 5.03512 3.42318
0.00718 -9e-05 0.0139 -179.16101 -32.34737 -5.35422 40.64247 1.07593 -4.62372 -13.34235 -1.41956 -0.50831 -25.77308 -8.75005 -8.0014 31.06228 89.97994 6.87289 -0.59383 -28.82522 14.57429 1.74086 34.13092 -96.00666 14.88122 0.57884 38.84534 -2.78955 -3.2402 -20.43433 -9.55553 -4.62918 -3.23401 38.05218 5.32979 7.03722 -27.09341 -8.48579 5.02941 3.42022
0.00896 0.00019 0.01662 -179.13411 -32.23356 -5.49663 40.39518 1.07669 -4.90648 -13.21431 -1.52726 -0.509 -25.23878 -8.96265 -7.42433 31.72386 89.84359 6.96605 -0.61825 -27.74441 14.95076 0.90272 34.71473 -95.83149 14.82756 0.59867 39.19626 -2.95736 -3.80292 -21.12099 -9.60375 -4.58621 -3.21281 38.00194 5.24912 6.9682 -27.06182 -8.46818 5.02367 3.41725
0.01073 0.00046 0.01932 -179.10597 -32.12031 -5.63875 40.14895 1.07693 -5.1897 -13.08542 -1.63438 -0.50968 -24.70527 -9.17246 -6.85147 32.38318 89.73011 7.06376 -0.63813 -26.66592 15.32815 0.06724 35.29726 -95.65731 14.77273 0.61841 39.54898 -3.12096 -4.36083 -21.80914 -9.6512 -4.54395 -3.19199 37.95164 5.16888 6.89797 -27.03007 -8.45069 5.01802 3.41432
0.01253 0.00074 0.02205 -179.08041 -32.00602 -5.78133 39.90081 1.07821 -5.47167 -12.95845 -1.74256 -0.51036 -24.17069 -9.38764 -6.27086 33.04638 89.57148 7.15239 -0.66695 -25.5839 15.70329 -0.77278 35.88177 -95.4813 14.72031 0.63833 39.89771 -3.29288 -4.92747 -22.49392 -9.70017 -4.50036 -3.17047 37.90151 5.08781 6.83005 -26.99869 -8.43301 5.01221 3.41133
0.0143 0.00102 0.02475 -179.05235 -31.89275 -5.92347 39.65451 1.07851 -5.75481 -12.82956 -1.84975 -0.51104 -23.63723 -9.59789 -5.69725 33.70592 89.45311 7.24907 -0.68783 -24.50521 16.0805 -1.60844 36.46438 -95.30701 14.66567 0.65806 40.25006 -3.45707 -5.48669 -23.18112 -9.7477 -4.45788 -3.14953 37.85123 5.00761 6.76037 -26.96698 -8.41546 5.00651 3.40836
0.01605 0.00129 0.02743 -179.02166 -31.78042 -6.06521 39.41001 1.07772 -6.03951 -12.69884 -1.95585 -0.51172 -23.10428 -9.80208 -5.13248 34.36167 89.38995 7.35705 -0.69771 -23.42965 16.46053 -2.43993 37.04532 -95.13462 14.60822 0.67763 40.60737 -3.61205 -6.03458 -23.8745 -9.79363 -4.41722 -3.12956 37.8007 4.92802 6.687 -26.9348 -8.39823 5.00111 3.40553
0.01795 0.00158 0.03028 -179.0074 -31.66176 -6.20965 39.15381 1.08353 -6.31565 -12.58018 -2.06858 -0.51239 -22.56581 -10.04105 -4.51769 35.04132 89.0272 7.40442 -0.76697 -22.33321 16.82522 -3.29892 37.63783 -94.95066 14.56666 0.69837 40.9378 -3.82071 -6.64089 -24.54205 -9.84927 -4.36746 -3.10478 37.75141 4.84354 6.6302 -26.90512 -8.37965 4.99448 3.40223
0.01952 0.00184 0.03275 -178.95765 -31.55705 -6.3481 38.92318 1.07521 -6.60951 -12.43515 -2.16707 -0.51308 -22.04071 -10.2067 -4.00794 35.66908 89.28466 7.57677 -0.71351 -21.28286 17.22159 -4.0975 38.20457 -94.79156 14.4918 0.71646 41.32376 -3.91574 -7.12823 -25.25769 -9.8841 -4.33606 -3.08966 37.69962 4.77026 6.54149 -26.87028 -8.36359 4.99012 3.3997
0.02028 0.00204 0.03421 -178.81622 -31.4861 -6.47236 38.75591 1.0292 -6.9551 -12.22411 -2.22796 -0.51382 -21.5384 -10.16882 -3.79318 36.16483 91.35685 8.11897 -0.29917 -20.34342 17.71151 -4.74853 38.71119 -94.69745 14.32276 0.72867 41.87369 -3.6985 -7.2499 -26.15933 -9.8641 -4.36247 -3.10541 37.63995 4.72062 6.33851 -26.82031 -8.3573 4.99487 3.40121
0.0207 0.00221 0.03528 -178.63808 -31.43005 -6.59009 38.61559 0.96876 -7.31762 -11.98527 -2.27418 -0.51457 -21.05225 -10.05783 -3.68264 36.60603 94.02913 8.78129 0.2336 -19.45353 18.23178 -5.3353 39.18976 -94.62887 14.12086 0.73797 42.4773 -3.36705 -7.25879 -27.09898 -9.82287 -4.40607 -3.13013 37.57792 4.68337 6.10794 -26.76538 -8.35304 5.0014 3.40318
0.02123 0.0024 0.03651 -178.47302 -31.37007 -6.70951 38.46733 0.91422 -7.67073 -11.75516 -2.32625 -0.51532 -20.56759 -9.98173 -3.51996 37.0661 96.3555 9.37165 0.69686 -18.55056 18.73416 -5.93988 39.67456 -94.55072 13.93577 0.74769 43.04872 -3.0884 -7.34566 -27.98635 -9.7898 -4.43675 -3.14777 37.51769 4.64535 5.90813 -26.71329 -8.34592 5.00517 3.40364
0.02194 0.0026 0.03781 -178.32314 -31.29794 -6.83478 38.30082 0.86254 -8.03229 -11.54199 -2.38207 -0.51607 -20.04498 -9.89813 -3.3776 37.55327 98.99962 10.03732 1.22797 -17.60614 19.2549 -6.59337 40.18776 -94.46414 13.74249 0.76119 43.65294 -2.80653 -7.32196 -29.02276 -9.76267 -4.48846 -3.17777 37.45452 4.58761 5.6335 -26.65851 -8.34682 5.01702 3.40944
0.02219 0.00275 0.03887 -178.1329 -31.25489 -6.94573 38.17884 0.80136 -8.37879 -11.28629 -2.42616 -0.51681 -19.60609 -9.81321 -3.21767 37.96829 101.11473 10.57242 1.6441 -16.76197 19.74334 -7.12858 40.63397 -94.40106 13.55873 0.76615 44.20182 -2.50331 -7.49872 -29.75627 -9.71848 -4.50116 -3.18457 37.39676 4.57292 5.50546 -26.6084 -8.3317 5.01268 3.40439
0.02134 0.00281 0.03939 -177.84043 -31.28625 -7.0236 38.1721 0.71853 -8.69184 -10.92591 -2.44515 -0.51748 -19.38758 -9.73927 -2.984 38.22106 101.70731 10.73741 1.72952 -16.1642 20.14525 -7.36284 40.91158 -94.39778 13.4076 0.74814 44.5826 -2.17796 -8.28343 -29.65688 -9.62962 -4.39595 -3.12145 37.35554 4.68217 5.81272 -26.57034 -8.26993 4.96133 3.36792
0.02004 0.00281 0.03968 -177.50847 -31.34674 -7.08628 38.20941 0.62651 -8.98669 -10.52284 -2.45212 -0.51814 -19.25422 -9.66695 -2.72968 38.39867 101.7359 10.76422 1.6932 -15.6693 20.51147 -7.47837 41.12058 -94.41721 13.26764 0.72168 44.90632 -1.83356 -9.26861 -29.24943 -9.5249 -4.25212 -3.0354 37.31951 4.83281 6.2643 -26.53751 -8.19231 4.89395 3.32076
0.0189 0.00283 0.04006 -177.19457 -31.39542 -7.1528 38.22736 0.53798 -9.28206 -10.13508 -2.46216 -0.51881 -19.08609 -9.59631 -2.4837 38.59526 101.96011 10.83983 1.7009 -15.13893 20.8877 -7.64183 41.3552 -94.42528 13.12354 0.69916 45.2575 -1.49192 -10.14475 -28.97393 -9.42918 -4.12981 -2.96217 37.28056 4.95918 6.63392 -26.50365 -8.12323 4.83513 3.27941
0.01791 0.00289 0.04047 -176.87935 -31.43875 -7.23234 38.24368 0.45164 -9.61147 -9.76256 -2.48186 -0.51948 -18.90115 -9.51376 -2.24284 38.85415 102.44016 10.97416 1.75616 -14.56152 21.29216 -7.82873 41.61383 -94.438 12.97383 0.67604 45.60378 -1.17069 -11.09352 -28.73164 -9.32492 -3.99097 -2.87892 37.24444 5.10901 7.07062 -26.46403 -8.04864 4.77103 3.23409
0.0165 0.00285 0.04078 -176.55743 -31.49977 -7.28085 38.27325 0.35897 -9.86451 -9.34985 -2.47868 -0.52013 -18.77221 -9.45628 -1.98872 38.96598 102.27232 10.95756 1.68731 -14.10732 21.62773 -7.93913 41.80463 -94.44689 12.83955 0.65227 45.94641 -0.80453 -11.93899 -28.34915 -9.23523 -3.87763 -2.81122 37.20303 5.21969 7.40358 -26.43758 -7.98166 4.71403 3.19446
0.01408 0.0025 0.04088 -176.2312 -31.60384 -7.25079 38.33048 0.24935 -9.91915 -8.8259 -2.41635 -0.52068 -18.76957 -9.478 -1.66905 38.69292 100.21149 10.50593 1.25659 -13.95637 21.79136 -7.86961 41.84066 -94.43261 12.73973 0.62823 46.28851 -0.31488 -12.4606 -27.63195 -9.18747 -3.84 -2.78995 37.1508 5.21112 7.40146 -26.4474 -7.94039 4.68147 3.17361
0.01124 0.00205 0.0409 -175.89876 -31.72426 -7.18937 38.39896 0.13417 -9.8961 -8.26549 -2.33143 -0.52121 -18.82218 -9.52382 -1.34114 38.27511 97.55374 9.91493 0.71239 -13.92825 21.88451 -7.72661 41.80771 -94.41481 12.65625 0.60393 46.62896 0.21762 -12.87031 -26.78839 -9.15538 -3.82998 -2.78545 37.09188 5.16153 7.29127 -26.47004 -7.90727 4.65655 3.15883
0.00856 0.00165 0.04096 -175.56655 -31.83643 -7.14023 38.46102 0.02262 -9.90313 -7.72845 -2.25601 -0.52175 -18.85366 -9.55154 -1.04056 37.92083 95.3332 9.42303 0.25331 -13.85084 22.00407 -7.61669 41.79652 -94.4032 12.569 0.58013 46.97342 0.72768 -13.32454 -26.01749 -9.11771 -3.81009 -2.77469 37.03302 5.13175 7.24109 -26.48613 -7.86972 4.62737 3.14089
0.00599 0.00124 0.041 -175.24453 -31.95367 -7.09921 38.53044 -0.09433 -9.93113 -7.15968 -2.18278 -0.52228 -18.86916 -9.60741 -0.64561 37.56963 92.41958 8.78104 -0.34617 -13.74775 22.14792 -7.50587 41.82456 -94.37328 12.46662 0.55445 47.30417 1.25244 -13.81098 -25.17143 -9.0732 -3.77791 -2.75752 36.9879 5.09981 7.15531 -26.50571 -7.83424 4.60046 3.124
0.0031 0.00082 0.04107 -174.89952 -32.06314 -7.03364 38.58626 -0.20074 -9.89782 -6.6508 -2.10055 -0.52283 -18.93266 -9.61289 -0.43819 37.18336 90.78148 8.41326 -0.68534 -13.72816 22.22268 -7.37855 41.75392 -94.38003 12.39957 0.53271 47.66129 1.75468 -14.20297 -24.45604 -9.04656 -3.77794 -2.75779 36.91129 5.06042 7.10938 -26.52069 -7.79716 4.57149 3.10686
-0.00045 0.00038 0.04124 -174.49966 -32.15326 -6.91141 38.60502 -0.28067 -9.70939 -6.30054 -1.99249 -0.52347 -19.09229 -9.45119 -0.81407 36.69582 93.10739 8.8993 -0.21839 -13.89069 22.14214 -7.24532 41.44086 -94.4913 12.4252 0.52215 48.11305 2.19945 -14.34487 -24.13283 -9.06803 -3.86407 -2.80397 36.75975 5.02481 7.25812 -26.52219 -7.74876 4.5294 3.08433
-0.00431 -7e-05 0.04145 -174.07575 -32.2338 -6.76503 38.60913 -0.34892 -9.46311 -6.01514 -1.87735 -0.52413 -19.30247 -9.24162 -1.36776 36.18599 96.68896 9.65595 0.50472 -14.13642 21.99083 -7.0944 41.0288 -94.63878 12.48572 0.51556 48.58725 2.61701 -14.39746 -23.94695 -9.10648 -3.9811 -2.86686 36.57475 4.98048 7.43984 -26.51809 -7.69941 4.48601 3.06194
-0.00807 -0.00052 0.04165 -173.65844 -32.31443 -6.62745 38.61726 -0.41997 -9.24637 -5.71033 -1.76992 -0.52477 -19.50367 -9.06909 -1.79779 35.7127 99.49953 10.24729 1.07115 -14.35497 21.86067 -6.93821 40.65372 -94.76835 12.53105 0.50704 49.03793 3.03713 -14.50118 -23.69945 -9.13559 -4.08166 -2.92103 36.39831 4.93019 7.56663 -26.51505 -7.65388 4.44704 3.04172
-0.01168 -0.00096 0.04182 -173.25924 -32.41324 -6.49779 38.63589 -0.50222 -9.01249 -5.36097 -1.64311 -0.52545 -19.64649 -8.83481 -2.40613 35.12214 103.11892 11.00893 1.8004 -14.53096 21.77629 -6.83633 40.30983 -94.90504 12.575 0.49907 49.54653 3.50071 -14.55759 -23.44397 -9.1723 -4.19356 -2.98066 36.24988 4.91929 7.85534 -26.51894 -7.59454 4.39245 3.01248
